<?xml version="1.0" encoding="UTF-8"?>
<svg id="_レイヤー_1" data-name="レイヤー 1" xmlns="http://www.w3.org/2000/svg" width="282.24" height="328.64" viewBox="0 0 282.24 328.64">
  <polyline points="117.42 240.51 43.13 240.51 43.13 276.32 146.07 276.32 146.07 316.6 11.79 316.6" fill="none" stroke="#3f3b3a" stroke-linecap="round" stroke-linejoin="round" stroke-width="23.59"/>
  <line x1="176.69" y1="48.95" x2="178.48" y2="316.6" fill="none" stroke="#3f3b3a" stroke-linecap="round" stroke-linejoin="round" stroke-width="23.59"/>
  <line x1="185.36" y1="99.62" x2="207.84" y2="99.62" fill="none" stroke="#3f3b3a" stroke-linecap="round" stroke-linejoin="round" stroke-width="23.59"/>
  <line x1="210.04" y1="316.84" x2="237.85" y2="316.84" fill="none" stroke="#f5f5f5" stroke-linecap="round" stroke-linejoin="round" stroke-width="23.59"/>
  <polyline points="239.72 11.79 239.72 40.69 239.72 193.49" fill="none" stroke="#3f3b3a" stroke-linecap="round" stroke-linejoin="round" stroke-width="23.59"/>
  <polyline points="239.72 223.89 239.72 238.67 239.72 316.84" fill="none" stroke="#3f3b3a" stroke-linecap="round" stroke-linejoin="round" stroke-width="23.59"/>
  <polyline points="209.1 11.79 209.1 40.69 209.1 193.49" fill="none" stroke="#3f3b3a" stroke-linecap="round" stroke-linejoin="round" stroke-width="23.59"/>
  <polyline points="209.1 223.89 209.1 238.67 209.1 316.84" fill="none" stroke="#3f3b3a" stroke-linecap="round" stroke-linejoin="round" stroke-width="23.23"/>
  <polyline points="270.34 134.91 270.34 163.8 270.34 316.6" fill="none" stroke="#3f3b3a" stroke-linecap="round" stroke-linejoin="round" stroke-width="23.59"/>
  <polyline points="270.34 70.7 270.34 37.51 251.61 37.51" fill="none" stroke="#3f3b3a" stroke-linecap="round" stroke-linejoin="round" stroke-width="23.59"/>
  <circle cx="270.34" cy="103.73" r="3.95" fill="none" stroke="#3f3b3a" stroke-linecap="round" stroke-linejoin="round" stroke-width="15.9"/>
</svg>